<svg width="83" height="16" viewBox="0 0 83 16" fill="none" xmlns="http://www.w3.org/2000/svg">
<path d="M8.31809 1.16929L10.2823 0L15.2252 7.34819L13.4598 8.40706V10.8561H13.1065L8.31809 3.72872V1.16929Z" fill="black"/>
<path d="M4.148 3.35445L6.11217 2.18516L11.0551 9.53335L9.28971 10.5922V13.0412H8.93639L4.148 5.91388V3.35445Z" fill="black"/>
<path d="M0 5.53845L1.96417 4.36916L6.90714 11.7173L5.14171 12.7762V15.2252H4.78839L0 8.09788V5.53845Z" fill="black"/>
<path d="M18.6935 11.8335V3.35378H20.58V4.86809H20.6979C21.0715 3.8652 22.0536 3.24013 23.3306 3.24013C24.6075 3.24013 25.5699 3.78943 26.0222 4.86809H26.1205C26.6513 3.78943 27.7317 3.24013 29.0283 3.24013C30.9148 3.24013 32.0935 4.4135 32.0935 6.43922V11.8335H30.1284V6.60969C30.1284 5.45527 29.4412 4.79232 28.3205 4.79232C27.1025 4.79232 26.375 5.58686 26.375 6.74228V11.8335H24.4099V6.4771C24.4099 5.47421 23.6834 4.79232 22.6414 4.79232C21.5413 4.79232 20.6566 5.68157 20.6566 6.9307V11.8325L18.6935 11.8335Z" fill="black"/>
<path d="M33.6251 3.35378V11.8335H35.5902V3.35378H33.6251Z" fill="black"/>
<path d="M37.1611 3.35378V11.8335L39.1262 11.8325V6.98752C39.1262 5.43633 40.7571 4.54609 42.1324 5.01962L42.9965 3.60002C42.6426 3.35378 42.1521 3.22119 41.6212 3.22119C40.4229 3.22119 39.5195 3.8652 39.1656 4.83021H39.0672V3.35378H37.1611Z" fill="black"/>
<path fill-rule="evenodd" clip-rule="evenodd" d="M46.5522 12.004C44.9803 12.004 43.605 11.1526 43.0162 9.7709C42.6033 8.80589 42.3094 6.89381 43.0358 5.45527C43.7426 4.03567 44.9617 3.24113 46.5719 3.24113C47.9078 3.24113 48.6539 3.79043 49.3618 4.92591H49.4797V3.35478H51.4842V11.8345H49.5191V10.3202H49.3618C48.6933 11.3989 47.9471 12.004 46.5522 12.004ZM49.2045 8.80489C48.7729 9.88355 48.1241 10.4518 46.9651 10.4518C45.8257 10.4518 45.1189 9.90249 44.7061 8.84277C44.4701 8.27553 44.3521 7.21482 44.6864 6.36346C45.0786 5.3795 45.8257 4.77338 46.9651 4.77338C48.1044 4.77338 48.8702 5.41739 49.2045 6.32557C49.5387 7.15799 49.3421 8.33136 49.2045 8.80489Z" fill="black"/>
<path d="M57.4361 5.26707V5.92758H54.2188V5.26707H57.4361ZM55.2244 11.8125V4.30826C55.2244 3.95599 55.3054 3.65911 55.4673 3.41764C55.6321 3.17616 55.8466 2.99292 56.1108 2.86792C56.375 2.74292 56.6548 2.68042 56.9503 2.68042C57.1491 2.68042 57.3139 2.69747 57.4446 2.73156C57.5781 2.76281 57.6832 2.79406 57.7599 2.82531L57.5384 3.49008C57.4815 3.47303 57.4119 3.45315 57.3295 3.43042C57.2472 3.40769 57.1435 3.39633 57.0185 3.39633C56.6889 3.39633 56.4347 3.48866 56.2557 3.67332C56.0767 3.85798 55.9872 4.12218 55.9872 4.46593L55.983 11.8125H55.2244Z" fill="black"/>
<path d="M59.7085 3.08525V11.8125H58.9499V3.08525H59.7085Z" fill="black"/>
<path d="M64.2596 11.9489C63.6942 11.9489 63.1942 11.8054 62.7596 11.5185C62.3278 11.2316 61.9897 10.8352 61.7454 10.3296C61.5011 9.82105 61.3789 9.2344 61.3789 8.56962C61.3789 7.89917 61.5011 7.30968 61.7454 6.80116C61.9897 6.2898 62.3278 5.89207 62.7596 5.60798C63.1942 5.32105 63.6942 5.17758 64.2596 5.17758C64.8249 5.17758 65.3235 5.32105 65.7553 5.60798C66.1871 5.89491 66.5252 6.29264 66.7695 6.80116C67.0167 7.30968 67.1403 7.89917 67.1403 8.56962C67.1403 9.2344 67.0181 9.82105 66.7738 10.3296C66.5295 10.8352 66.19 11.2316 65.7553 11.5185C65.3235 11.8054 64.8249 11.9489 64.2596 11.9489ZM64.2596 11.2543C64.7141 11.2543 65.0991 11.1321 65.4144 10.8878C65.7298 10.6435 65.9684 10.3182 66.1303 9.91195C66.2951 9.5057 66.3775 9.05826 66.3775 8.56962C66.3775 8.08099 66.2951 7.63212 66.1303 7.22303C65.9684 6.81394 65.7298 6.48582 65.4144 6.23866C65.0991 5.9915 64.7141 5.86792 64.2596 5.86792C63.8079 5.86792 63.4229 5.9915 63.1048 6.23866C62.7894 6.48582 62.5494 6.81394 62.3846 7.22303C62.2227 7.63212 62.1417 8.08099 62.1417 8.56962C62.1417 9.05826 62.2227 9.5057 62.3846 9.91195C62.5494 10.3182 62.7894 10.6435 63.1048 10.8878C63.4201 11.1321 63.805 11.2543 64.2596 11.2543Z" fill="black"/>
<path d="M70.0359 11.8125L68.0586 5.26707H68.8597L70.4109 10.6662H70.4663L72.0131 5.26707H72.8185L74.3526 10.6534H74.4123L75.9634 5.26707H76.7646L74.7873 11.8125H74.0032L72.4521 6.44747H72.3711L70.82 11.8125H70.0359Z" fill="black"/>
<path d="M82.6367 6.70315L81.9421 6.89917C81.8739 6.70315 81.7773 6.52559 81.6523 6.3665C81.5273 6.20741 81.364 6.08099 81.1623 5.98724C80.9634 5.89349 80.7163 5.84661 80.4208 5.84661C79.9776 5.84661 79.614 5.95173 79.3299 6.16195C79.0458 6.37218 78.9038 6.64349 78.9038 6.97587C78.9038 7.25712 79.0004 7.48582 79.1935 7.66195C79.3896 7.83525 79.6907 7.97303 80.0969 8.07531L81.0856 8.3182C81.6339 8.45173 82.0444 8.66338 82.3171 8.95315C82.5927 9.24292 82.7305 9.60656 82.7305 10.0441C82.7305 10.4134 82.6282 10.7415 82.4237 11.0284C82.2191 11.3154 81.9336 11.5412 81.5671 11.706C81.2035 11.8679 80.7816 11.9489 80.3015 11.9489C79.6623 11.9489 79.1353 11.8054 78.7205 11.5185C78.3058 11.2287 78.0401 10.8111 77.9237 10.2656L78.6523 10.0867C78.7461 10.4759 78.9293 10.7699 79.2021 10.9688C79.4776 11.1676 79.8398 11.2671 80.2887 11.2671C80.7915 11.2671 81.1935 11.1549 81.4947 10.9304C81.7958 10.7031 81.9464 10.4191 81.9464 10.0781C81.9464 9.81394 81.8583 9.59235 81.6822 9.41337C81.506 9.23156 81.239 9.09803 80.881 9.01281L79.8114 8.75712C79.2433 8.62076 78.8228 8.40485 78.5501 8.1094C78.2773 7.81394 78.141 7.44747 78.141 7.00997C78.141 6.64917 78.239 6.33241 78.435 6.05968C78.631 5.78411 78.9009 5.5682 79.2447 5.41195C79.5884 5.2557 79.9805 5.17758 80.4208 5.17758C81.0202 5.17758 81.4989 5.31394 81.8569 5.58667C82.2177 5.85656 82.4776 6.22872 82.6367 6.70315Z" fill="black"/>
</svg>
