<svg width="83" height="16" viewBox="0 0 83 16" fill="none" xmlns="http://www.w3.org/2000/svg">
<path d="M8.5759 1.35679L10.5401 0.1875L15.483 7.53569L13.7176 8.59456V11.0436H13.3643L8.5759 3.91622V1.35679Z" fill="white"/>
<path d="M4.40582 3.54195L6.36999 2.37266L11.313 9.72085L9.54753 10.7797V13.2287H9.19421L4.40582 6.10138V3.54195Z" fill="white"/>
<path d="M0.257812 5.72595L2.22198 4.55666L7.16495 11.9048L5.39952 12.9637V15.4127H5.0462L0.257812 8.28538V5.72595Z" fill="white"/>
<path d="M18.9513 12.021V3.54128H20.8378V5.05559H20.9558C21.3293 4.0527 22.3114 3.42763 23.5884 3.42763C24.8654 3.42763 25.8277 3.97693 26.28 5.05559H26.3783C26.9091 3.97693 27.9895 3.42763 29.2862 3.42763C31.1727 3.42763 32.3513 4.601 32.3513 6.62672V12.021H30.3862V6.79719C30.3862 5.64277 29.6991 4.97982 28.5783 4.97982C27.3603 4.97982 26.6328 5.77436 26.6328 6.92978V12.021H24.6677V6.6646C24.6677 5.66171 23.9412 4.97982 22.8992 4.97982C21.7991 4.97982 20.9144 5.86907 20.9144 7.1182V12.02L18.9513 12.021Z" fill="white"/>
<path d="M33.8829 3.54128V12.021H35.848V3.54128H33.8829Z" fill="white"/>
<path d="M37.4189 3.54128V12.021L39.384 12.02V7.17502C39.384 5.62383 41.0149 4.73359 42.3902 5.20712L43.2543 3.78752C42.9004 3.54128 42.4099 3.40869 41.879 3.40869C40.6807 3.40869 39.7773 4.0527 39.4234 5.01771H39.3251V3.54128H37.4189Z" fill="white"/>
<path fill-rule="evenodd" clip-rule="evenodd" d="M46.81 12.1915C45.2381 12.1915 43.8628 11.3401 43.274 9.9584C42.8611 8.99339 42.5672 7.08131 43.2936 5.64277C44.0004 4.22317 45.2195 3.42863 46.8297 3.42863C48.1656 3.42863 48.9118 3.97793 49.6196 5.11341H49.7375V3.54228H51.742V12.022H49.7769V10.5077H49.6196C48.9511 11.5864 48.205 12.1915 46.81 12.1915ZM49.4623 8.99239C49.0308 10.071 48.3819 10.6393 47.2229 10.6393C46.0836 10.6393 45.3768 10.09 44.9639 9.03027C44.7279 8.46303 44.61 7.40232 44.9442 6.55096C45.3364 5.567 46.0836 4.96088 47.2229 4.96088C48.3623 4.96088 49.128 5.60489 49.4623 6.51307C49.7965 7.34549 49.5999 8.51886 49.4623 8.99239Z" fill="white"/>
<path d="M57.6939 5.45457V6.11508H54.4766V5.45457H57.6939ZM55.4822 12V4.49576C55.4822 4.14349 55.5632 3.84661 55.7251 3.60514C55.8899 3.36366 56.1044 3.18042 56.3686 3.05542C56.6328 2.93042 56.9126 2.86792 57.2081 2.86792C57.407 2.86792 57.5717 2.88497 57.7024 2.91906C57.8359 2.95031 57.9411 2.98156 58.0178 3.01281L57.7962 3.67758C57.7393 3.66053 57.6697 3.64065 57.5874 3.61792C57.505 3.59519 57.4013 3.58383 57.2763 3.58383C56.9467 3.58383 56.6925 3.67616 56.5135 3.86082C56.3345 4.04548 56.245 4.30968 56.245 4.65343L56.2408 12H55.4822Z" fill="white"/>
<path d="M59.9663 3.27275V12H59.2077V3.27275H59.9663Z" fill="white"/>
<path d="M64.5174 12.1364C63.9521 12.1364 63.4521 11.9929 63.0174 11.706C62.5856 11.4191 62.2475 11.0227 62.0032 10.5171C61.7589 10.0085 61.6367 9.4219 61.6367 8.75712C61.6367 8.08667 61.7589 7.49718 62.0032 6.98866C62.2475 6.4773 62.5856 6.07957 63.0174 5.79548C63.4521 5.50855 63.9521 5.36508 64.5174 5.36508C65.0827 5.36508 65.5813 5.50855 66.0131 5.79548C66.445 6.08241 66.783 6.48014 67.0273 6.98866C67.2745 7.49718 67.3981 8.08667 67.3981 8.75712C67.3981 9.4219 67.2759 10.0085 67.0316 10.5171C66.7873 11.0227 66.4478 11.4191 66.0131 11.706C65.5813 11.9929 65.0827 12.1364 64.5174 12.1364ZM64.5174 11.4418C64.9719 11.4418 65.3569 11.3196 65.6722 11.0753C65.9876 10.831 66.2262 10.5057 66.3881 10.0995C66.5529 9.6932 66.6353 9.24576 66.6353 8.75712C66.6353 8.26849 66.5529 7.81962 66.3881 7.41053C66.2262 7.00144 65.9876 6.67332 65.6722 6.42616C65.3569 6.179 64.9719 6.05542 64.5174 6.05542C64.0657 6.05542 63.6808 6.179 63.3626 6.42616C63.0472 6.67332 62.8072 7.00144 62.6424 7.41053C62.4805 7.81962 62.3995 8.26849 62.3995 8.75712C62.3995 9.24576 62.4805 9.6932 62.6424 10.0995C62.8072 10.5057 63.0472 10.831 63.3626 11.0753C63.6779 11.3196 64.0629 11.4418 64.5174 11.4418Z" fill="white"/>
<path d="M70.2937 12L68.3164 5.45457H69.1175L70.6687 10.8537H70.7241L72.271 5.45457H73.0763L74.6104 10.8409H74.6701L76.2212 5.45457H77.0224L75.0451 12H74.261L72.7099 6.63497H72.6289L71.0778 12H70.2937Z" fill="white"/>
<path d="M82.8945 6.89065L82.1999 7.08667C82.1317 6.89065 82.0352 6.71309 81.9102 6.554C81.7852 6.39491 81.6218 6.26849 81.4201 6.17474C81.2212 6.08099 80.9741 6.03411 80.6786 6.03411C80.2354 6.03411 79.8718 6.13923 79.5877 6.34945C79.3036 6.55968 79.1616 6.83099 79.1616 7.16337C79.1616 7.44462 79.2582 7.67332 79.4513 7.84945C79.6474 8.02275 79.9485 8.16053 80.3548 8.26281L81.3434 8.5057C81.8917 8.63923 82.3022 8.85088 82.5749 9.14065C82.8505 9.43042 82.9883 9.79406 82.9883 10.2316C82.9883 10.6009 82.886 10.929 82.6815 11.2159C82.4769 11.5029 82.1914 11.7287 81.8249 11.8935C81.4613 12.0554 81.0394 12.1364 80.5593 12.1364C79.9201 12.1364 79.3931 11.9929 78.9783 11.706C78.5636 11.4162 78.2979 10.9986 78.1815 10.4531L78.9102 10.2742C79.0039 10.6634 79.1871 10.9574 79.4599 11.1563C79.7354 11.3551 80.0977 11.4546 80.5465 11.4546C81.0494 11.4546 81.4513 11.3424 81.7525 11.1179C82.0536 10.8906 82.2042 10.6066 82.2042 10.2656C82.2042 10.0014 82.1161 9.77985 81.94 9.60087C81.7638 9.41906 81.4968 9.28553 81.1388 9.20031L80.0692 8.94462C79.5011 8.80826 79.0806 8.59235 78.8079 8.2969C78.5352 8.00144 78.3988 7.63497 78.3988 7.19747C78.3988 6.83667 78.4968 6.51991 78.6928 6.24718C78.8888 5.97161 79.1587 5.7557 79.5025 5.59945C79.8462 5.4432 80.2383 5.36508 80.6786 5.36508C81.2781 5.36508 81.7567 5.50144 82.1147 5.77417C82.4755 6.04406 82.7354 6.41622 82.8945 6.89065Z" fill="white"/>
</svg>
